<?xml version="1.0" standalone="no"?>
<svg xmlns:xlink="http://www.w3.org/1999/xlink" id="wave" style="transform:rotate(180deg); transition: 0.3s" viewBox="0 0 1440 100" version="1.1" xmlns="http://www.w3.org/2000/svg"><defs><linearGradient id="sw-gradient-0" x1="0" x2="0" y1="1" y2="0"><stop stop-color="rgba(250, 250, 250, 1)" offset="0%"/><stop stop-color="rgba(250, 250, 250, 1)" offset="100%"/></linearGradient></defs><path style="transform:translate(0, 0px); opacity:1" fill="url(#sw-gradient-0)" d="M0,90L26.7,78.3C53.3,67,107,43,160,36.7C213.3,30,267,40,320,36.7C373.3,33,427,17,480,18.3C533.3,20,587,40,640,48.3C693.3,57,747,53,800,43.3C853.3,33,907,17,960,13.3C1013.3,10,1067,20,1120,33.3C1173.3,47,1227,63,1280,61.7C1333.3,60,1387,40,1440,38.3C1493.3,37,1547,53,1600,53.3C1653.3,53,1707,37,1760,33.3C1813.3,30,1867,40,1920,48.3C1973.3,57,2027,63,2080,56.7C2133.3,50,2187,30,2240,28.3C2293.3,27,2347,43,2400,48.3C2453.3,53,2507,47,2560,36.7C2613.3,27,2667,13,2720,18.3C2773.3,23,2827,47,2880,48.3C2933.3,50,2987,30,3040,28.3C3093.3,27,3147,43,3200,43.3C3253.3,43,3307,27,3360,20C3413.3,13,3467,17,3520,23.3C3573.3,30,3627,40,3680,50C3733.3,60,3787,70,3813,75L3840,80L3840,100L3813.3,100C3786.7,100,3733,100,3680,100C3626.7,100,3573,100,3520,100C3466.7,100,3413,100,3360,100C3306.7,100,3253,100,3200,100C3146.7,100,3093,100,3040,100C2986.7,100,2933,100,2880,100C2826.7,100,2773,100,2720,100C2666.7,100,2613,100,2560,100C2506.7,100,2453,100,2400,100C2346.7,100,2293,100,2240,100C2186.7,100,2133,100,2080,100C2026.7,100,1973,100,1920,100C1866.7,100,1813,100,1760,100C1706.7,100,1653,100,1600,100C1546.7,100,1493,100,1440,100C1386.7,100,1333,100,1280,100C1226.7,100,1173,100,1120,100C1066.7,100,1013,100,960,100C906.7,100,853,100,800,100C746.7,100,693,100,640,100C586.7,100,533,100,480,100C426.7,100,373,100,320,100C266.7,100,213,100,160,100C106.7,100,53,100,27,100L0,100Z"/></svg>