<?xml version="1.0" standalone="no"?>
<svg xmlns:xlink="http://www.w3.org/1999/xlink" id="wave" style="transform:rotate(0deg); transition: 0.3s" viewBox="0 0 1440 150" version="1.1" xmlns="http://www.w3.org/2000/svg"><defs><linearGradient id="sw-gradient-0" x1="0" x2="0" y1="1" y2="0"><stop stop-color="rgba(51, 51, 51, 1)" offset="0%"/><stop stop-color="rgba(51, 51, 51, 1)" offset="100%"/></linearGradient></defs><path style="transform:translate(0, 0px); opacity:1" fill="url(#sw-gradient-0)" d="M0,135L30,117.5C60,100,120,65,180,55C240,45,300,60,360,55C420,50,480,25,540,27.5C600,30,660,60,720,72.5C780,85,840,80,900,65C960,50,1020,25,1080,20C1140,15,1200,30,1260,50C1320,70,1380,95,1440,92.5C1500,90,1560,60,1620,57.5C1680,55,1740,80,1800,80C1860,80,1920,55,1980,50C2040,45,2100,60,2160,72.5C2220,85,2280,95,2340,85C2400,75,2460,45,2520,42.5C2580,40,2640,65,2700,72.5C2760,80,2820,70,2880,55C2940,40,3000,20,3060,27.5C3120,35,3180,70,3240,72.5C3300,75,3360,45,3420,42.5C3480,40,3540,65,3600,65C3660,65,3720,40,3780,30C3840,20,3900,25,3960,35C4020,45,4080,60,4140,75C4200,90,4260,105,4290,112.5L4320,120L4320,150L4290,150C4260,150,4200,150,4140,150C4080,150,4020,150,3960,150C3900,150,3840,150,3780,150C3720,150,3660,150,3600,150C3540,150,3480,150,3420,150C3360,150,3300,150,3240,150C3180,150,3120,150,3060,150C3000,150,2940,150,2880,150C2820,150,2760,150,2700,150C2640,150,2580,150,2520,150C2460,150,2400,150,2340,150C2280,150,2220,150,2160,150C2100,150,2040,150,1980,150C1920,150,1860,150,1800,150C1740,150,1680,150,1620,150C1560,150,1500,150,1440,150C1380,150,1320,150,1260,150C1200,150,1140,150,1080,150C1020,150,960,150,900,150C840,150,780,150,720,150C660,150,600,150,540,150C480,150,420,150,360,150C300,150,240,150,180,150C120,150,60,150,30,150L0,150Z"/></svg>
